<svg width="22" height="22" viewBox="0 0 22 22" fill="none" xmlns="http://www.w3.org/2000/svg">
<g clip-path="url(#clip0)">
<path d="M22 6.86691V3.60937C22 3.22963 21.6016 2.92147 21.1111 2.92147H15.222V0.6875C15.222 0.308162 14.8241 0 14.3336 0H7.66693C7.17595 0 6.77752 0.308162 6.77752 0.6875V2.92147H0.888889C0.397909 2.92147 0 3.22963 0 3.60937V6.86691C0 7.24625 0.397909 7.55401 0.888889 7.55401H1.14405V21.3125C1.14405 21.6918 1.54196 22 2.03242 22H17.4473C19.3271 22 20.8565 20.8175 20.8565 19.364V7.55441H21.1106C21.6016 7.55441 22 7.24665 22 6.86691ZM8.55529 1.375H13.4442V2.92147H8.55529V1.375ZM19.0792 19.3644C19.0792 20.0596 18.3472 20.625 17.4478 20.625H2.92235V7.55441L19.0792 7.55522V19.3644ZM20.2217 6.17941H1.77725V4.29687H7.66693H14.3336H20.2222V6.17941H20.2217Z" fill="black"/>
<path d="M9.54122 9H8.71924V19H9.54122V9Z" fill="black"/>
<path d="M11.5961 9H10.7742V19H11.5961V9Z" fill="black"/>
<path d="M13.6511 9H12.8291V19H13.6511V9Z" fill="black"/>
</g>
<defs>
<clipPath id="clip0">
<rect width="22" height="22" fill="white"/>
</clipPath>
</defs>
</svg>
