<svg width="22" height="22" viewBox="0 0 22 22" fill="none" xmlns="http://www.w3.org/2000/svg">
<path d="M21.1955 6.63965L20.2232 7.61242L14.3888 1.77881L15.3611 0.805941C16.4352 -0.26826 18.1769 -0.26826 19.2511 0.805941L21.1955 2.7509C22.2681 3.82451 22.2681 5.56553 21.1955 6.63965ZM7.5824 18.3061C7.3139 18.5747 7.3139 19.0095 7.5824 19.2781C7.85105 19.5481 8.28613 19.5481 8.55464 19.2781L19.2511 8.58461L18.2777 7.61174L7.5824 18.3061ZM2.72042 13.4453C2.45178 13.714 2.45178 14.1487 2.72042 14.4174C2.98893 14.686 3.42401 14.686 3.69265 14.4174L14.3888 3.72313L13.4168 2.7509L2.72042 13.4453ZM15.3598 4.69464L4.66466 15.3895C4.1276 15.9256 4.12897 16.797 4.66466 17.334C5.20194 17.8711 6.07194 17.8736 6.6104 17.3326L17.3056 6.63965L15.3598 4.69464ZM6.60763 20.2478C6.27878 19.9185 6.12027 19.5013 6.06128 19.0713C5.9215 19.0929 5.78071 19.113 5.63689 19.113C4.90229 19.113 4.21235 18.8258 3.69265 18.3061C3.17296 17.7851 2.88696 17.0962 2.88696 16.3616C2.88696 16.2277 2.90704 16.0972 2.9259 15.967C2.48143 15.9065 2.0706 15.7118 1.74832 15.3895C1.7174 15.3588 1.70675 15.3172 1.67859 15.2835L0 21.9999L6.69895 20.323C6.66943 20.2961 6.63601 20.276 6.60763 20.2478Z" fill="black"/>
</svg>
