<svg width="15" height="15" viewBox="0 0 15 15" fill="none" xmlns="http://www.w3.org/2000/svg">
<g clip-path="url(#clip0)">
<path d="M5.27089 14.7216L14.6042 8.15913C14.8681 7.97376 15 7.75407 15 7.5C15 7.24593 14.8681 7.02629 14.6042 6.84071L5.27089 0.278285C5.00718 0.0927104 4.6946 0 4.3335 0C3.9725 0 3.6598 0.0927104 3.3961 0.278285C3.1321 0.464065 3 0.683707 3 0.937571L3 14.0624C3 14.3163 3.1321 14.5361 3.3961 14.7216C3.6597 14.9069 3.9724 15 4.3335 15C4.6946 15 5.00718 14.9069 5.27089 14.7216Z" fill="white"/>
</g>
<defs>
<clipPath id="clip0">
<rect width="15" height="15" fill="white" transform="translate(15) rotate(90)"/>
</clipPath>
</defs>
</svg>
