<svg width="30" height="30" viewBox="0 0 30 30" fill="none" xmlns="http://www.w3.org/2000/svg">
<g clip-path="url(#clip0)">
<path d="M20.7587 17.802C24.3599 12.7168 23.1555 5.67531 18.0703 2.07499C12.9851 -1.52532 5.94366 -0.321778 2.34334 4.76426C-1.25698 9.84944 -0.0534297 16.8901 5.03261 20.4904C8.66217 23.0601 13.4609 23.2579 17.2892 20.9971L25.6073 29.2653C26.5055 30.2108 27.9998 30.2486 28.9452 29.3505C29.8907 28.4532 29.9286 26.9589 29.0313 26.0134C29.0029 25.9833 28.9754 25.9558 28.9452 25.9274L20.7587 17.802ZM11.5441 18.5728C7.52573 18.5736 4.26781 15.3183 4.26523 11.2999C4.26437 7.28147 7.51971 4.02355 11.539 4.02183C15.5522 4.02011 18.8084 7.27028 18.8162 11.2835C18.8231 15.3028 15.5694 18.5659 11.5493 18.5728C11.5476 18.5728 11.5467 18.5728 11.5441 18.5728Z" fill="white"/>
</g>
<defs>
<clipPath id="clip0">
<path d="M0 10C0 4.47715 4.47715 0 10 0H30V30H10C4.47715 30 0 25.5228 0 20V10Z" fill="white"/>
</clipPath>
</defs>
</svg>
